Coordinates
version=1
nRows=26
nColumns=27
inDegrees=yes

Units are S.I. units (second, meters, Newtons, ...)
If the header above contains a line with 'inDegrees', this indicates whether rotational values are in degrees (yes) or radians (no).

endheader
time	pelvis_rotation	pelvis_tilt	pelvis_list	pelvis_tx	pelvis_ty	pelvis_tz	hip_flexion_r	hip_adduction_r	hip_rotation_r	knee_angle_r	knee_rotation_r	knee_adduction_r	knee_angle_r_beta	ankle_angle_r	subtalar_angle_r	mtp_angle_r	hip_flexion_l	hip_adduction_l	hip_rotation_l	knee_angle_l	knee_rotation_l	knee_adduction_l	knee_angle_l_beta	ankle_angle_l	subtalar_angle_l	mtp_angle_l
      5.39500000	      5.07713497	    -39.59629988	      4.16929852	     -0.04995870	      0.44897858	     -1.16029542	    139.48789062	    -44.53800814	     26.01621288	    106.79440638	      0.00000000	      0.00000000	      1.86391401	     12.27770235	      0.00000000	      0.00000000	    135.17376131	    -37.11001724	     16.93955711	    101.08317057	      0.00000000	      0.00000000	      1.76423414	      0.96287668	      0.00000000	      0.00000000
      5.40000000	      5.10480478	    -39.74626375	      4.21683884	     -0.05100446	      0.45066048	     -1.16032917	    139.43267734	    -44.48447562	     25.82337766	    106.56104967	      0.00000000	      0.00000000	      1.85984117	     12.08039579	      0.00000000	      0.00000000	    135.03556929	    -37.03245228	     16.70945847	    100.82867390	      0.00000000	      0.00000000	      1.75979234	      0.84894323	      0.00000000	      0.00000000
      5.40500000	      5.13474356	    -39.91592238	      4.24677198	     -0.05202495	      0.45233961	     -1.16036410	    139.38186280	    -44.45930625	     25.60740297	    106.33098347	      0.00000000	      0.00000000	      1.85582576	     11.93085171	      0.00000000	      0.00000000	    134.93318092	    -36.93796761	     16.50048200	    100.58246238	      0.00000000	      0.00000000	      1.75549514	      0.76582759	      0.00000000	      0.00000000
      5.41000000	      5.17201919	    -40.08644846	      4.29579956	     -0.05309592	      0.45409289	     -1.16039181	    139.33323525	    -44.41606454	     25.40333152	    106.08724511	      0.00000000	      0.00000000	      1.85157172	     11.76203947	      0.00000000	      0.00000000	    134.80413090	    -36.84773954	     16.26484421	    100.31444347	      0.00000000	      0.00000000	      1.75081733	      0.66267613	      0.00000000	      0.00000000
      5.41500000	      5.21802912	    -40.26342713	      4.35384829	     -0.05417247	      0.45587326	     -1.16042096	    139.30053093	    -44.37867742	     25.20837981	    105.84223498	      0.00000000	      0.00000000	      1.84729549	     11.57727657	      0.00000000	      0.00000000	    134.67046010	    -36.74994594	     16.01588983	    100.04236250	      0.00000000	      0.00000000	      1.74606862	      0.55866087	      0.00000000	      0.00000000
      5.42000000	      5.23471300	    -40.42251741	      4.37104844	     -0.05528609	      0.45770972	     -1.16044966	    139.19608776	    -44.33882967	     24.95404818	    105.58357683	      0.00000000	      0.00000000	      1.84278105	     11.41044094	      0.00000000	      0.00000000	    134.54330864	    -36.65469703	     15.80893024	     99.76567877	      0.00000000	      0.00000000	      1.74123958	      0.46412819	      0.00000000	      0.00000000
      5.42500000	      5.27902466	    -40.59496204	      4.42865959	     -0.05641701	      0.45959823	     -1.16046180	    139.13492213	    -44.29502853	     24.74018870	    105.32020901	      0.00000000	      0.00000000	      1.83818442	     11.22101386	      0.00000000	      0.00000000	    134.38680496	    -36.55395911	     15.55339425	     99.47227518	      0.00000000	      0.00000000	      1.73611872	      0.36023060	      0.00000000	      0.00000000
      5.43000000	      5.31207740	    -40.77493231	      4.47750414	     -0.05755477	      0.46150718	     -1.16046786	    139.06553496	    -44.24430283	     24.50995503	    105.05310774	      0.00000000	      0.00000000	      1.83352262	     11.06006728	      0.00000000	      0.00000000	    134.24840571	    -36.46359071	     15.30712441	     99.17676572	      0.00000000	      0.00000000	      1.73096110	      0.25140573	      0.00000000	      0.00000000
      5.43500000	      5.32807952	    -40.95866130	      4.50395726	     -0.05877153	      0.46347432	     -1.16045909	    138.97060007	    -44.18342407	     24.24901295	    104.77344102	      0.00000000	      0.00000000	      1.82864151	     10.86646708	      0.00000000	      0.00000000	    134.11460666	    -36.36267905	     15.08056573	     98.85976353	      0.00000000	      0.00000000	      1.72542837	      0.09484635	      0.00000000	      0.00000000
      5.44000000	      5.38025249	    -41.12449192	      4.54542466	     -0.05994396	      0.46548239	     -1.16047518	    138.86925347	    -44.16668389	     24.00091861	    104.48612100	      0.00000000	      0.00000000	      1.82362683	     10.68374301	      0.00000000	      0.00000000	    133.94735241	    -36.24061174	     14.82999671	     98.54948573	      0.00000000	      0.00000000	      1.72001300	      0.02417734	      0.00000000	      0.00000000
      5.44500000	      5.42119127	    -41.30691315	      4.58748548	     -0.06115908	      0.46752078	     -1.16046541	    138.77360776	    -44.12571009	     23.74608151	    104.19477247	      0.00000000	      0.00000000	      1.81854184	     10.50553539	      0.00000000	      0.00000000	    133.79513696	    -36.13033103	     14.57944774	     98.22385064	      0.00000000	      0.00000000	      1.71432960	     -0.09503884	      0.00000000	      0.00000000
      5.45000000	      5.46356772	    -41.48735343	      4.62324709	     -0.06240614	      0.46960720	     -1.16045874	    138.65959242	    -44.08680998	     23.47963946	    103.89337701	      0.00000000	      0.00000000	      1.81328150	     10.33962312	      0.00000000	      0.00000000	    133.63871612	    -36.00856119	     14.33321344	     97.88888994	      0.00000000	      0.00000000	      1.70848343	     -0.22408258	      0.00000000	      0.00000000
      5.45500000	      5.51220551	    -41.68801989	      4.68511173	     -0.06366979	      0.47171456	     -1.16042206	    138.58193392	    -44.03181761	     23.23307509	    103.58954029	      0.00000000	      0.00000000	      1.80797855	     10.14833737	      0.00000000	      0.00000000	    133.48264077	    -35.91002884	     14.05404334	     97.54165373	      0.00000000	      0.00000000	      1.70242302	     -0.34481169	      0.00000000	      0.00000000
      5.46000000	      5.55923324	    -41.84825065	      4.70701400	     -0.06491797	      0.47385771	     -1.16038856	    138.42581443	    -44.01666088	     22.94040998	    103.27673556	      0.00000000	      0.00000000	      1.80251908	      9.97876974	      0.00000000	      0.00000000	    133.30670598	    -35.77816785	     13.81264816	     97.19515944	      0.00000000	      0.00000000	      1.69637555	     -0.45695223	      0.00000000	      0.00000000
      5.46500000	      5.62258375	    -42.02743585	      4.76737277	     -0.06621803	      0.47603929	     -1.16034969	    138.31397297	    -43.97548507	     22.68601156	    102.95753935	      0.00000000	      0.00000000	      1.79694805	      9.79080377	      0.00000000	      0.00000000	    133.12168866	    -35.65691940	     13.53423777	     96.83030896	      0.00000000	      0.00000000	      1.69000771	     -0.59503557	      0.00000000	      0.00000000
      5.47000000	      5.69091537	    -42.19439823	      4.81270897	     -0.06750490	      0.47822191	     -1.16030725	    138.17785087	    -43.96268022	     22.40946480	    102.63591277	      0.00000000	      0.00000000	      1.79133461	      9.61547242	      0.00000000	      0.00000000	    132.93619169	    -35.52093355	     13.26969276	     96.46411670	      0.00000000	      0.00000000	      1.68361645	     -0.74103851	      0.00000000	      0.00000000
      5.47500000	      5.72539232	    -42.37000713	      4.86108536	     -0.06879998	      0.48044796	     -1.16023380	    138.02741526	    -43.89016005	     22.13310369	    102.30541870	      0.00000000	      0.00000000	      1.78556640	      9.44709274	      0.00000000	      0.00000000	    132.75298926	    -35.44073038	     12.99127509	     96.09321803	      0.00000000	      0.00000000	      1.67714304	     -0.86707896	      0.00000000	      0.00000000
      5.48000000	      5.78973414	    -42.55130522	      4.90102783	     -0.07013574	      0.48264561	     -1.16018692	    137.89171588	    -43.86953715	     21.84660363	    101.97178030	      0.00000000	      0.00000000	      1.77974331	      9.27590284	      0.00000000	      0.00000000	    132.58406807	    -35.30253044	     12.73482374	     95.71579124	      0.00000000	      0.00000000	      1.67055570	     -1.01848376	      0.00000000	      0.00000000
      5.48500000	      5.84484008	    -42.68984575	      4.97397301	     -0.07143137	      0.48484417	     -1.16012598	    137.73872837	    -43.81781787	     21.59366804	    101.64037350	      0.00000000	      0.00000000	      1.77395917	      9.09837524	      0.00000000	      0.00000000	    132.34670926	    -35.20846121	     12.43851654	     95.33344553	      0.00000000	      0.00000000	      1.66388251	     -1.14122404	      0.00000000	      0.00000000
      5.49000000	      5.91722078	    -42.88139186	      5.00443088	     -0.07277790	      0.48709933	     -1.16005182	    137.58556527	    -43.80215019	     21.29040080	    101.29444017	      0.00000000	      0.00000000	      1.76792149	      8.94573740	      0.00000000	      0.00000000	    132.19478721	    -35.06540168	     12.18521974	     94.94637170	      0.00000000	      0.00000000	      1.65712680	     -1.31591131	      0.00000000	      0.00000000
      5.49500000	      5.99834399	    -43.04758767	      5.05927726	     -0.07410068	      0.48935490	     -1.15998421	    137.42759852	    -43.78619602	     21.01104280	    100.94652305	      0.00000000	      0.00000000	      1.76184920	      8.78128412	      0.00000000	      0.00000000	    131.99587159	    -34.92889666	     11.90694279	     94.55053893	      0.00000000	      0.00000000	      1.65021821	     -1.46895563	      0.00000000	      0.00000000
      5.50000000	      6.04957344	    -43.20609110	      5.11742277	     -0.07539603	      0.49153753	     -1.15989069	    137.27700306	    -43.73120956	     20.74110235	    100.61342947	      0.00000000	      0.00000000	      1.75603562	      8.63391043	      0.00000000	      0.00000000	    131.80042769	    -34.83838443	     11.63186969	     94.16692649	      0.00000000	      0.00000000	      1.64352291	     -1.60438347	      0.00000000	      0.00000000
      5.50500000	      6.14622061	    -43.37911435	      5.19276314	     -0.07670670	      0.49371035	     -1.15979931	    137.15936426	    -43.71100887	     20.49913771	    100.27844896	      0.00000000	      0.00000000	      1.75018910	      8.47124627	      0.00000000	      0.00000000	    131.61374982	    -34.70141774	     11.35027197	     93.77465302	      0.00000000	      0.00000000	      1.63667645	     -1.77064104	      0.00000000	      0.00000000
      5.51000000	      6.18624159	    -43.52895314	      5.22390969	     -0.07800118	      0.49595946	     -1.15970947	    136.95733964	    -43.66792017	     20.18672011	     99.92015735	      0.00000000	      0.00000000	      1.74393573	      8.30835550	      0.00000000	      0.00000000	    131.41606491	    -34.60573763	     11.09434349	     93.37623908	      0.00000000	      0.00000000	      1.62972282	     -1.93725838	      0.00000000	      0.00000000
      5.51500000	      6.24879611	    -43.65125942	      5.28082822	     -0.07925523	      0.49815472	     -1.15960465	    136.75695820	    -43.63394080	     19.91306128	     99.57868463	      0.00000000	      0.00000000	      1.73797591	      8.18090304	      0.00000000	      0.00000000	    131.17684327	    -34.50502246	     10.81161264	     92.97857993	      0.00000000	      0.00000000	      1.62278235	     -2.08473742	      0.00000000	      0.00000000
      5.52000000	      6.30612254	    -43.82355833	      5.32581718	     -0.08052732	      0.50031930	     -1.15949529	    136.60398691	    -43.59020918	     19.63391963	     99.23514158	      0.00000000	      0.00000000	      1.73197995	      8.02307359	      0.00000000	      0.00000000	    131.00758109	    -34.39342088	     10.56469706	     92.58659296	      0.00000000	      0.00000000	      1.61594089	     -2.24652404	      0.00000000	      0.00000000
